# xmcd CD database file
#
# Track frame offsets:
#	150
#	34411
#	62214
#	76109
#	119035
#	152881
#	176898
#	197036
#	215668
#	232324
#	248075
#	272630
#	294260
#
# Disc length: 4203 seconds
#
# Revision: 0
# Processed by: cddbd v1.5.2PL0 Copyright (c) Steve Scherf et al.
# Submitted via: CDex 1.51
#
DISCID=c910690d
DTITLE=Various Artist - Harlem Nocturne CD1
DYEAR=2006
DGENRE=Jazz
TTITLE0=Sonny Stitt: Slave Maidens
TTITLE1=Richard Groove Homes: Song For My Father
TTITLE2=Billy Hawks: O' Baby
TTITLE3=Gene Ammons: Ca'Purange
TTITLE4=Willis Jackson: Nuther'n Like Thuther'n
TTITLE5=Johnny Hammond Smith: Opus De Funk
TTITLE6=Freddy McCoy: Harlem Nocturne
TTITLE7=Gene Ammons: Blue Velvet
TTITLE8=Trudy Pitts: House Of The Rising Sun
TTITLE9=Andy and The Bey Sisters: 'Round Midnight
TTITLE10=Wally Richardson: Elbow Blues
TTITLE11=Pucho and The Latin Soul Brothers: How Insensitive
TTITLE12=Sonny Criss: Smile
EXTD=YEAR: 2006
EXTT0=
EXTT1=
EXTT2=
EXTT3=
EXTT4=
EXTT5=
EXTT6=
EXTT7=
EXTT8=
EXTT9=
EXTT10=
EXTT11=
EXTT12=
PLAYORDER=
